<svg id="Layer_1" enable-background="new 0 0 512 512" height="512" viewBox="0 0 512 512" width="512" xmlns="http://www.w3.org/2000/svg"><g><path d="m266.292 379.262v83.718c0 4.143 3.357 7.5 7.5 7.5s7.5-3.357 7.5-7.5v-83.718c0-4.143-3.357-7.5-7.5-7.5s-7.5 3.358-7.5 7.5z"/><path d="m273.79 341.766c-4.142 0-7.5 3.358-7.5 7.5s3.358 7.5 7.5 7.5 7.5-3.358 7.5-7.5-3.358-7.5-7.5-7.5z"/><path d="m453.897 118.219-38.304-38.311v-57.146c.001-12.551-10.209-22.762-22.758-22.762h-314.454c-12.393 0-22.475 10.083-22.475 22.478v377.123c0 12.394 10.082 22.477 22.475 22.477h12.713v12.53c0 12.394 10.082 22.477 22.474 22.477h39.647c4.143 0 7.5-3.357 7.5-7.5s-3.357-7.5-7.5-7.5h-39.647c-4.121 0-7.474-3.354-7.474-7.477v-301.619c0-4.143-3.357-7.5-7.5-7.5s-7.5 3.357-7.5 7.5v274.088h-12.713c-4.121 0-7.475-3.354-7.475-7.477v-377.122c0-4.123 3.354-7.478 7.475-7.478h314.454c4.278 0 7.759 3.481 7.759 7.762v42.144l-27.696-27.701c-1.406-1.407-3.314-2.197-5.304-2.197h-254.027c-12.392 0-22.474 10.083-22.474 22.478v40.582c0 4.143 3.357 7.5 7.5 7.5s7.5-3.357 7.5-7.5v-40.584c0-4.123 3.353-7.478 7.474-7.478h246.526v73.502c0 4.142 3.357 7.499 7.499 7.5l73.501.012v303.586c0 4.123-3.354 7.477-7.475 7.477h-39.276c-4.143 0-7.5 3.357-7.5 7.5s3.357 7.5 7.5 7.5h39.276c12.393 0 22.475-10.083 22.475-22.477v-311.085c.001-1.989-.789-3.896-2.196-5.302zm-78.803-2.209v-55.394l55.393 55.403z"/><path d="m184.068 178.496h179.421c4.143 0 7.5-3.357 7.5-7.5s-3.357-7.5-7.5-7.5h-179.421c-4.143 0-7.5 3.357-7.5 7.5s3.358 7.5 7.5 7.5z"/><path d="m184.068 222.738h179.421c4.143 0 7.5-3.357 7.5-7.5s-3.357-7.5-7.5-7.5h-179.421c-4.143 0-7.5 3.357-7.5 7.5s3.358 7.5 7.5 7.5z"/><path d="m363.489 252.863h-35.446c-4.143 0-7.5 3.357-7.5 7.5s3.357 7.5 7.5 7.5h35.446c4.143 0 7.5-3.357 7.5-7.5s-3.357-7.5-7.5-7.5z"/><path d="m184.068 267.863h108.677c4.143 0 7.5-3.357 7.5-7.5s-3.357-7.5-7.5-7.5h-108.677c-4.143 0-7.5 3.357-7.5 7.5s3.358 7.5 7.5 7.5z"/><path d="m273.792 300.249c-44.438 0-84.455 28.062-99.577 69.826-1.41 3.896.604 8.195 4.498 9.605 3.899 1.41 8.195-.604 9.605-4.498 12.979-35.849 47.329-59.934 85.474-59.934 50.108 0 90.875 40.767 90.875 90.876 0 50.108-40.767 90.875-90.875 90.875s-90.875-40.767-90.875-90.875c0-4.143-3.357-7.5-7.5-7.5s-7.5 3.357-7.5 7.5c0 58.38 47.495 105.875 105.875 105.875s105.875-47.495 105.875-105.875-47.495-105.875-105.875-105.875z"/></g></svg>