<?xml version="1.0" encoding="iso-8859-1"?>
<!-- Generator: Adobe Illustrator 19.0.0, SVG Export Plug-In . SVG Version: 6.00 Build 0)  -->
<svg version="1.1" id="Capa_1" xmlns="http://www.w3.org/2000/svg" xmlns:xlink="http://www.w3.org/1999/xlink" x="0px" y="0px"
	 viewBox="0 0 470.204 470.204" style="enable-background:new 0 0 470.204 470.204;" xml:space="preserve">
<g>
	<g>
		<g>
			<path d="M428.408,381.388h-62.694c-5.771,0-10.449,4.678-10.449,10.449s4.678,10.449,10.449,10.449h62.694
				c5.771,0,10.449-4.678,10.449-10.449S434.179,381.388,428.408,381.388z"/>
			<path d="M397.061,301.453c22.795,0,41.273-18.479,41.273-41.273c0-22.795-18.479-41.273-41.273-41.273
				c-22.795,0-41.273,18.479-41.273,41.273C355.788,282.974,374.266,301.453,397.061,301.453z M376.686,259.121
				c0.292-10.961,9.415-19.609,20.375-19.317c0.353-0.009,0.706-0.009,1.059,0c10.961,0.292,19.609,9.415,19.317,20.376
				c0,11.253-9.122,20.375-20.376,20.375s-20.375-9.122-20.375-20.375C376.676,259.827,376.676,259.474,376.686,259.121z"/>
			<path d="M428.408,329.143h-62.694c-5.771,0-10.449,4.678-10.449,10.449s4.678,10.449,10.449,10.449h62.694
				c5.771,0,10.449-4.678,10.449-10.449S434.179,329.143,428.408,329.143z"/>
			<path d="M334.367,175.543H52.245c-5.771,0-10.449,4.678-10.449,10.449v240.327c0,5.771,4.678,10.449,10.449,10.449h282.122
				c5.771,0,10.449-4.678,10.449-10.449V185.992C344.816,180.221,340.138,175.543,334.367,175.543z M323.918,415.869H62.694V196.441
				h261.224V415.869z"/>
			<path d="M428.408,135.837H265.404l77.322-67.918c4.614,2.657,9.828,4.096,15.151,4.18c19.909,0,36.049-16.14,36.049-36.049
				S377.787,0,357.878,0c-19.909,0-36.049,16.14-36.049,36.049c0.056,6.62,1.858,13.108,5.224,18.808l-89.339,78.89l-89.339-78.89
				c3.366-5.7,5.168-12.188,5.225-18.808C153.6,16.14,137.46,0,117.551,0S81.502,16.14,81.502,36.049
				c0,19.909,16.14,36.049,36.049,36.049c5.323-0.084,10.538-1.522,15.151-4.18l77.322,67.918H47.02
				C23.117,136.361,3.706,155.315,2.612,179.2v249.208c0,22.988,21.42,41.796,44.408,41.796h381.388
				c22.988,0,39.184-18.808,39.184-41.796V179.2C467.592,156.212,451.396,135.837,428.408,135.837z M357.878,20.898
				c8.368,0,15.151,6.783,15.151,15.151S366.245,51.2,357.878,51.2c-8.368,0-15.151-6.783-15.151-15.151
				S349.51,20.898,357.878,20.898z M117.551,51.2c-8.368,0-15.151-6.783-15.151-15.151s6.783-15.151,15.151-15.151
				s15.151,6.783,15.151,15.151S125.919,51.2,117.551,51.2z M446.694,428.408c0,11.542-9.356,20.898-20.898,20.898H44.408
				c-11.542,0-20.898-9.356-20.898-20.898V177.633c0-11.542,9.356-20.898,20.898-20.898h381.388
				c11.542,0,20.898,9.356,20.898,20.898V428.408z"/>
		</g>
	</g>
</g>
<g>
</g>
<g>
</g>
<g>
</g>
<g>
</g>
<g>
</g>
<g>
</g>
<g>
</g>
<g>
</g>
<g>
</g>
<g>
</g>
<g>
</g>
<g>
</g>
<g>
</g>
<g>
</g>
<g>
</g>
</svg>
